<?xml version="1.0" standalone="no"?>
<!DOCTYPE svg PUBLIC "-//W3C//DTD SVG 20010904//EN"
 "http://www.w3.org/TR/2001/REC-SVG-20010904/DTD/svg10.dtd">
<svg version="1.0" xmlns="http://www.w3.org/2000/svg"
 width="512.000000pt" height="512.000000pt" viewBox="0 0 512.000000 512.000000"
 preserveAspectRatio="xMidYMid meet">
<metadata>
Created by potrace 1.11, written by Peter Selinger 2001-2013
</metadata>
<g transform="translate(0.000000,512.000000) scale(0.100000,-0.100000)"
fill="#000000" stroke="none">
<path d="M160 3979 c-12 -22 6 -30 84 -35 84 -6 126 -19 168 -54 45 -37 57
-74 65 -200 9 -131 8 -1973 0 -2142 -4 -76 -9 -143 -12 -150 -2 -7 -6 -29 -9
-48 -7 -51 -34 -110 -59 -131 -22 -18 -56 -26 -131 -33 -46 -5 -66 -20 -48
-38 17 -17 885 -20 907 -4 25 19 2 36 -56 41 -215 20 -243 49 -266 270 -10 99
-15 1145 -5 1145 5 0 38 -33 73 -72 80 -91 328 -368 349 -388 8 -8 40 -42 70
-75 484 -529 749 -779 917 -864 112 -57 153 -63 453 -68 235 -4 278 -2 295 10
30 23 10 35 -64 42 -152 13 -315 81 -445 185 -107 86 -318 283 -526 491 -187
187 -662 675 -783 804 l-66 70 52 54 c251 259 939 931 1023 999 113 90 273
157 390 161 24 1 41 30 24 41 -5 3 -172 6 -371 5 -298 -1 -362 -3 -369 -15 -6
-10 2 -20 31 -38 21 -13 39 -29 40 -35 0 -7 2 -22 5 -35 8 -46 -45 -119 -221
-302 -45 -47 -104 -107 -130 -135 -26 -27 -177 -183 -335 -345 -158 -162 -314
-323 -346 -357 -33 -35 -63 -63 -67 -63 -11 0 -7 994 4 1083 14 117 55 168
145 183 21 3 46 8 54 9 8 2 25 4 38 4 18 1 23 6 20 23 l-3 23 -443 1 c-409 0
-444 -1 -452 -17z"/>
<path d="M3010 3985 c-17 -21 6 -33 75 -39 129 -12 198 -48 225 -120 21 -55
24 -215 24 -1146 0 -1113 -4 -1251 -39 -1375 -23 -82 -54 -103 -175 -120 -53
-8 -69 -20 -51 -38 9 -9 94 -13 344 -14 183 -2 429 -4 547 -5 227 -3 289 5
435 53 293 98 517 348 562 626 9 56 10 234 1 278 -29 151 -110 297 -229 414
-95 94 -237 185 -354 227 -27 9 -52 19 -54 21 -2 1 30 40 71 85 138 154 208
264 248 393 28 89 36 248 16 320 -51 184 -171 314 -360 389 -142 57 -156 58
-739 60 -378 2 -540 -1 -547 -9z m966 -104 c125 -24 247 -117 311 -237 77
-145 111 -371 79 -524 -32 -150 -119 -285 -214 -332 -45 -22 -57 -23 -257 -23
-149 1 -217 4 -232 13 l-23 13 0 528 c0 411 3 531 13 539 34 29 223 42 323 23z
m21 -1235 c15 -4 37 -8 48 -10 127 -24 245 -93 357 -208 151 -156 241 -402
239 -648 -2 -121 -13 -172 -57 -266 -84 -177 -275 -276 -520 -268 -241 7 -376
68 -404 181 -18 73 -27 1213 -9 1224 14 8 301 4 346 -5z"/>
</g>
</svg>
